<?xml version="1.0" encoding="utf-8"?>
<!-- Generator: Adobe Illustrator 19.0.0, SVG Export Plug-In . SVG Version: 6.00 Build 0)  -->
<svg version="1.1" id="Layer_1" xmlns="http://www.w3.org/2000/svg" xmlns:xlink="http://www.w3.org/1999/xlink" x="0px" y="0px"
	 viewBox="0 0 612 792" style="enable-background:new 0 0 612 792;" xml:space="preserve">
<style type="text/css">
	.st0{fill:#EF4137;}
</style>
<g>
	<g>
		<path class="st0" d="M65.4,68.1c-0.1,0-0.3-0.1-0.5-0.2l-5.8-5.6c-0.3-0.3-0.5-0.5-0.6-0.6c-0.1-0.1-0.3-0.3-0.4-0.5
			C58.1,61,58,60.8,58,60.5v-0.8c0-0.3,0.1-0.5,0.2-0.7c0.2-0.2,0.3-0.4,0.4-0.5c0.1-0.1,0.3-0.3,0.6-0.6l5.8-5.8
			c0.2-0.1,0.3-0.2,0.5-0.2s0.4,0.1,0.5,0.2c0.1,0.2,0.2,0.3,0.2,0.5v0.9c0,0.1,0,0.2,0,0.3c0,0.1-0.1,0.2-0.1,0.2s-0.1,0.2-0.1,0.2
			c-0.1,0.1-0.1,0.2-0.1,0.2c0,0.1-0.1,0.1-0.2,0.2c-0.1,0.1-0.2,0.2-0.2,0.2s-0.1,0.1-0.2,0.2c-0.1,0.1-0.2,0.2-0.2,0.2l-4.5,4.6
			c-0.1,0.1-0.2,0.2-0.2,0.3s0.1,0.2,0.2,0.3l4.5,4.4c0.1,0.1,0.1,0.1,0.2,0.2c0.1,0.1,0.2,0.2,0.2,0.2c0.1,0.1,0.1,0.1,0.2,0.2
			s0.1,0.1,0.2,0.2s0.1,0.1,0.1,0.2s0.1,0.2,0.1,0.2c0,0.1,0.1,0.2,0.1,0.2c0,0.1,0,0.2,0,0.3v1c0,0.2-0.1,0.4-0.2,0.5
			C65.7,68.1,65.6,68.1,65.4,68.1z"/>
		<path class="st0" d="M71,73.9c-0.1,0-0.2-0.2-0.2-0.4v-0.1c0-0.1,0-0.1,0-0.1L75.5,44c0.1-0.4,0.2-0.6,0.4-0.6h2.8
			c0.2,0,0.2,0.2,0.2,0.4c0,0.1,0,0.2,0,0.2l-4.7,29.4c-0.1,0.4-0.2,0.6-0.4,0.6H71z"/>
		<path class="st0" d="M83.3,70.5c-0.2,0-0.3-0.1-0.4-0.2c-0.1-0.1-0.1-0.3-0.1-0.6V47.6c0-0.3,0.1-0.6,0.1-0.6
			c0.1-0.1,0.2-0.2,0.4-0.2h2.9c0.2,0,0.3,0.1,0.4,0.2s0.1,0.3,0.1,0.6v8.8c0,0.1,0,0.2,0.1,0.3c0.1,0.1,0.1,0.1,0.2,0.1h6
			c0.1,0,0.1-0.1,0.2-0.1c0.1-0.1,0.1-0.2,0.1-0.3v-8.8c0-0.3,0.1-0.5,0.2-0.6c0.1-0.1,0.2-0.2,0.4-0.2h3c0.2,0,0.3,0.1,0.4,0.2
			c0.1,0.1,0.1,0.3,0.1,0.6v22.2c0,0.3-0.1,0.6-0.1,0.6c-0.1,0.1-0.2,0.2-0.4,0.2h-3c-0.1,0-0.2,0-0.3-0.1c-0.1-0.1-0.1-0.1-0.2-0.2
			c-0.1-0.1-0.1-0.3-0.1-0.5V59.7c0-0.3-0.1-0.4-0.2-0.4h-6c-0.2,0-0.2,0.1-0.2,0.4v10.1c0,0.3-0.1,0.5-0.2,0.6
			c-0.1,0.1-0.2,0.2-0.4,0.2H83.3z"/>
		<path class="st0" d="M104.5,70.5c-0.2,0-0.3-0.1-0.4-0.2c-0.1-0.1-0.2-0.3-0.2-0.6V49.9c0-0.3-0.1-0.4-0.2-0.4h-3.5
			c-0.2,0-0.2,0-0.3,0c-0.1,0-0.1-0.1-0.2-0.2c-0.1-0.1-0.1-0.3-0.1-0.5v-1.3c0-0.3,0.1-0.5,0.1-0.6c0.1-0.1,0.2-0.2,0.4-0.2h11.3
			c0.2,0,0.3,0.1,0.4,0.2c0.1,0.1,0.1,0.3,0.1,0.6v1.3c0,0.3-0.1,0.5-0.1,0.5c-0.1,0.1-0.2,0.1-0.4,0.1h-3.4c-0.2,0-0.2,0.2-0.2,0.4
			v19.9c0,0.3-0.1,0.6-0.2,0.7s-0.2,0.2-0.4,0.2L104.5,70.5L104.5,70.5z"/>
		<path class="st0" d="M114.9,70.5c-0.3,0-0.5-0.3-0.5-0.8v-0.1l0.9-21.9c0-0.6,0.2-0.9,0.5-0.9h3.2c0.2,0,0.4,0.1,0.5,0.2
			c0.2,0.1,0.3,0.3,0.3,0.6l3.4,15.6c0,0.1,0.1,0.1,0.1,0.1c0.1,0,0.1,0,0.1,0c0.1,0,0.1-0.1,0.1-0.1l3.4-15.5
			c0.1-0.5,0.4-0.8,0.8-0.8h3.2c0.3,0,0.5,0.4,0.5,0.9l0.9,21.9v0.1c0,0.5-0.2,0.8-0.5,0.8h-2.2c-0.3,0-0.5-0.3-0.5-0.9l-0.6-17
			c0-0.1,0-0.1-0.1-0.1s-0.1,0-0.1,0.1l-3.6,17.1c-0.1,0.5-0.4,0.8-0.7,0.8h-1.3c-0.3,0-0.6-0.3-0.7-0.8l-3.5-17
			c0-0.1-0.1-0.1-0.1-0.1c0,0,0,0.1,0,0.1l-0.7,16.9c0,0.6-0.2,0.9-0.5,0.9H114.9L114.9,70.5z"/>
		<path class="st0" d="M136.9,70.5c-0.2,0-0.3-0.1-0.4-0.2c-0.1-0.1-0.1-0.3-0.1-0.6V47.6c0-0.3,0.1-0.6,0.1-0.6
			c0.1-0.1,0.2-0.2,0.4-0.2h3c0.2,0,0.3,0.1,0.4,0.2c0.1,0.1,0.1,0.3,0.1,0.6v20c0,0.3,0.1,0.4,0.3,0.4h5.2c0.2,0,0.3,0.1,0.4,0.1
			c0.1,0.1,0.1,0.3,0.1,0.5v1.3c0,0.3-0.1,0.5-0.1,0.6c-0.1,0.1-0.2,0.1-0.4,0.1H136.9z"/>
		<path class="st0" d="M150.8,68.1c-0.2,0-0.4-0.1-0.5-0.2c-0.1-0.2-0.2-0.3-0.2-0.5v-0.9c0-0.1,0-0.2,0-0.2s0-0.2,0.1-0.2
			c0-0.1,0.1-0.1,0.1-0.2c0.1-0.1,0.1-0.1,0.1-0.2s0.1-0.1,0.1-0.2c0.1-0.1,0.1-0.1,0.1-0.2s0.1-0.1,0.1-0.2
			c0.1-0.1,0.1-0.1,0.2-0.2c0.1,0,0.1-0.1,0.2-0.2c0.1-0.1,0.2-0.1,0.2-0.2l4.5-4.6c0.1-0.1,0.2-0.2,0.2-0.3s-0.1-0.2-0.2-0.3
			l-4.4-4.4c-0.1-0.1-0.1-0.1-0.3-0.2c-0.1-0.1-0.2-0.2-0.2-0.2c-0.1-0.1-0.1-0.1-0.2-0.2c-0.1-0.1-0.2-0.2-0.2-0.2
			s-0.1-0.1-0.1-0.2c-0.1-0.1-0.1-0.2-0.1-0.3c0-0.1,0-0.2,0-0.3v-1.1c0-0.2,0.1-0.4,0.2-0.5c0.1-0.1,0.3-0.2,0.5-0.2
			c0.2,0,0.3,0.1,0.5,0.2l5.8,5.7c0.3,0.3,0.5,0.5,0.6,0.6c0.1,0.1,0.2,0.3,0.3,0.5s0.2,0.5,0.2,0.7v0.8c0,0.1,0,0.2,0,0.3
			c0,0.1-0.1,0.2-0.1,0.2c-0.1,0.1-0.1,0.2-0.1,0.2s-0.1,0.1-0.1,0.2s-0.1,0.2-0.1,0.2s-0.1,0.1-0.2,0.2s-0.2,0.2-0.2,0.2
			s-0.1,0.1-0.2,0.2c-0.1,0.1-0.2,0.2-0.2,0.2l-5.8,5.8C151.1,68.1,151,68.1,150.8,68.1z"/>
	</g>
</g>
</svg>
